####
#
# OBJ File Generated by Meshlab
#
####
# Object cement.obj
#
# Vertices: 74
# Faces: 60
#
####
mtllib ./cement.obj.mtl

vn 0.000000 -1.707107 0.707107
vt 0.388800 4.516500
v -391.122559 58.038010 -398.018951 0.584314 0.584314 0.584314
vn 0.000000 0.707107 1.707107
vt 0.537300 4.516500
v -391.122559 72.075806 -397.018951 0.584314 0.584314 0.584314
vn 0.000000 -0.707107 -1.707107
vt 0.537300 4.516500
v -391.122559 59.038010 -424.203339 0.584314 0.584314 0.584314
vn 0.000000 -3.414214 -1.414214
vt 0.244800 4.516500
v -391.122559 58.038010 -423.203339 0.584314 0.584314 0.584314
vn 0.000000 -1.414214 3.414214
vt 0.462700 4.516500
v -391.122559 59.038010 -397.018951 0.584314 0.584314 0.584314
vn 0.000000 2.707107 -0.707107
vt 0.755200 4.516500
v -391.122559 73.075806 -423.203339 0.584314 0.584314 0.584314
vn 0.000001 1.414214 -3.414214
vt 0.462700 4.516500
v -391.122559 72.075806 -424.203339 0.584314 0.584314 0.584314
vn 0.000000 2.414214 1.414214
vt 0.611200 4.516500
v -391.122559 73.075806 -398.018951 0.584314 0.584314 0.584314
vn 5.101476 -2.446120 1.732459
vt 0.611200 0.462700
v 452.526611 59.038010 -398.018860 0.584314 0.584314 0.584314
vn 4.101476 -1.732459 -2.446120
vt 0.755200 0.462700
v 452.526611 59.038010 -423.203156 0.584314 0.584314 0.584314
vn 5.101476 2.446120 -1.732459
vt 0.755200 0.537300
v 452.526611 72.075806 -423.203156 0.584314 0.584314 0.584314
vn 4.101476 1.732459 2.446120
vt 0.611200 0.537300
v 452.526611 72.075806 -398.018860 0.584314 0.584314 0.584314
vn 2.400984 -4.153226 -1.725906
vt 0.244800 -0.303300
v 451.507813 58.038010 -423.203156 0.584314 0.584314 0.584314
vn 1.700492 -5.146673 2.433012
vt 0.388800 -0.303300
v 451.507813 58.038010 -398.018860 0.584314 0.584314 0.584314
vn 2.400984 5.153226 1.725906
vt 0.611200 -0.303300
v 451.507813 73.075806 -398.018860 0.584314 0.584314 0.584314
vn 1.700492 4.146673 -2.433012
vt 0.755200 -0.303300
v 451.507813 73.075806 -423.203156 0.584314 0.584314 0.584314
vn 2.400984 -1.725906 4.153226
vt 0.462700 -0.303300
v 451.507813 59.038010 -397.018860 0.584314 0.584314 0.584314
vn 1.700491 2.433012 5.146673
vt 0.537300 -0.303300
v 451.507813 72.075806 -397.018860 0.584314 0.584314 0.584314
vn 1.700493 -2.433012 -5.146673
vt 0.537300 -0.303300
v 451.507813 59.038010 -424.203156 0.584314 0.584314 0.584314
vn 2.400984 1.725906 -4.153226
vt 0.462700 -0.303300
v 451.507813 72.075806 -424.203156 0.584314 0.584314 0.584314
vn -0.707107 -1.707107 -0.000000
vt 0.388800 4.516500
v -423.207886 58.038010 -391.012146 0.584314 0.584314 0.584314
vn -1.707107 0.707107 0.000000
vt 0.537300 4.516500
v -424.207886 72.075806 -391.012146 0.584314 0.584314 0.584314
vn 1.707107 -0.707107 0.000000
vt 0.537300 4.516500
v -397.023560 59.038010 -391.012146 0.584314 0.584314 0.584314
vn 1.414214 -3.414214 0.000000
vt 0.244800 4.516500
v -398.023560 58.038010 -391.012146 0.584314 0.584314 0.584314
vn -3.414214 -1.414214 -0.000001
vt 0.462700 4.516500
v -424.207886 59.038010 -391.012146 0.584314 0.584314 0.584314
vn 0.707107 2.707107 0.000000
vt 0.755200 4.516500
v -398.023560 73.075806 -391.012146 0.584314 0.584314 0.584314
vn 3.414214 1.414214 0.000001
vt 0.462700 4.516500
v -397.023560 72.075806 -391.012146 0.584314 0.584314 0.584314
vn -1.414214 2.414214 0.000000
vt 0.611200 4.516500
v -423.207886 73.075806 -391.012146 0.584314 0.584314 0.584314
vn -1.732459 -2.446120 5.101476
vt 0.611200 0.462700
v -423.208130 59.038010 452.637024 0.584314 0.584314 0.584314
vn 2.446120 -1.732459 4.101476
vt 0.755200 0.462700
v -398.023804 59.038010 452.637024 0.584314 0.584314 0.584314
vn 1.732459 2.446120 5.101476
vt 0.755200 0.537300
v -398.023804 72.075806 452.637024 0.584314 0.584314 0.584314
vn -2.446120 1.732459 4.101476
vt 0.611200 0.537300
v -423.208130 72.075806 452.637024 0.584314 0.584314 0.584314
vn 1.725906 -4.153226 2.400984
vt 0.244800 -0.303300
v -398.023804 58.038010 451.618225 0.584314 0.584314 0.584314
vn -2.433012 -5.146673 1.700491
vt 0.388800 -0.303300
v -423.208130 58.038010 451.618225 0.584314 0.584314 0.584314
vn -1.725906 5.153226 2.400984
vt 0.611200 -0.303300
v -423.208130 73.075806 451.618225 0.584314 0.584314 0.584314
vn 2.433012 4.146673 1.700492
vt 0.755200 -0.303300
v -398.023804 73.075806 451.618225 0.584314 0.584314 0.584314
vn -4.153226 -1.725906 2.400983
vt 0.462700 -0.303300
v -424.208130 59.038010 451.618225 0.584314 0.584314 0.584314
vn -5.146673 2.433012 1.700491
vt 0.537300 -0.303300
v -424.208130 72.075806 451.618225 0.584314 0.584314 0.584314
vn 5.146673 -2.433012 1.700493
vt 0.537300 -0.303300
v -397.023804 59.038010 451.618225 0.584314 0.584314 0.584314
vn 4.153226 1.725906 2.400984
vt 0.462700 -0.303300
v -397.023804 72.075806 451.618225 0.584314 0.584314 0.584314
vn 0.000000 -3.414214 -1.414214
vt 0.543000 4.516500
v -391.122559 58.038010 -423.203339 0.584314 0.584314 0.584314
vn 2.400984 -4.153226 -1.725906
vt 0.543000 -0.303300
v 451.507813 58.038010 -423.203156 0.584314 0.584314 0.584314
vn 2.400984 -1.725906 4.153226
vt 0.394600 -0.303300
v 451.507813 59.038010 -397.018860 0.584314 0.584314 0.584314
vn 0.000000 -1.414214 3.414214
vt 0.394600 4.516500
v -391.122559 59.038010 -397.018951 0.584314 0.584314 0.584314
vn 0.000000 2.414214 1.414214
vt 0.543000 4.516500
v -391.122559 73.075806 -398.018951 0.584314 0.584314 0.584314
vn 2.400984 5.153226 1.725906
vt 0.543000 -0.303300
v 451.507813 73.075806 -398.018860 0.584314 0.584314 0.584314
vn 2.400984 1.725906 -4.153226
vt 0.761000 -0.303300
v 451.507813 72.075806 -424.203156 0.584314 0.584314 0.584314
vn 0.000001 1.414214 -3.414214
vt 0.761000 4.516500
v -391.122559 72.075806 -424.203339 0.584314 0.584314 0.584314
vn 1.700493 -2.433012 -5.146673
vt 0.761000 0.462700
v 451.507813 59.038010 -424.203156 0.584314 0.584314 0.584314
vn 2.400984 -4.153226 -1.725906
vt 0.755200 0.457000
v 451.507813 58.038010 -423.203156 0.584314 0.584314 0.584314
vn 1.700492 -5.146673 2.433012
vt 0.457000 -0.303300
v 451.507813 58.038010 -398.018860 0.584314 0.584314 0.584314
vn 5.101476 -2.446120 1.732459
vt 0.462700 -0.309000
v 452.526611 59.038010 -398.018860 0.584314 0.584314 0.584314
vn 5.101476 2.446120 -1.732459
vt 0.755200 -0.309000
v 452.526611 72.075806 -423.203156 0.584314 0.584314 0.584314
vn 4.101476 1.732459 2.446120
vt 0.537300 -0.309000
v 452.526611 72.075806 -398.018860 0.584314 0.584314 0.584314
vn 1.700492 -5.146673 2.433012
vt 0.611200 0.457000
v 451.507813 58.038010 -398.018860 0.584314 0.584314 0.584314
vn 4.101476 1.732459 2.446120
vt 0.611200 -0.309000
v 452.526611 72.075806 -398.018860 0.584314 0.584314 0.584314
vn 2.400984 1.725906 -4.153226
vt 0.761000 0.537300
v 451.507813 72.075806 -424.203156 0.584314 0.584314 0.584314
vn 1.414214 -3.414214 0.000000
vt 0.543000 4.516500
v -398.023560 58.038010 -391.012146 0.584314 0.584314 0.584314
vn 1.725906 -4.153226 2.400984
vt 0.543000 -0.303300
v -398.023804 58.038010 451.618225 0.584314 0.584314 0.584314
vn -4.153226 -1.725906 2.400983
vt 0.394600 -0.303300
v -424.208130 59.038010 451.618225 0.584314 0.584314 0.584314
vn -3.414214 -1.414214 -0.000001
vt 0.394600 4.516500
v -424.207886 59.038010 -391.012146 0.584314 0.584314 0.584314
vn -1.414214 2.414214 0.000000
vt 0.543000 4.516500
v -423.207886 73.075806 -391.012146 0.584314 0.584314 0.584314
vn -1.725906 5.153226 2.400984
vt 0.543000 -0.303300
v -423.208130 73.075806 451.618225 0.584314 0.584314 0.584314
vn 4.153226 1.725906 2.400984
vt 0.761000 -0.303300
v -397.023804 72.075806 451.618225 0.584314 0.584314 0.584314
vn 3.414214 1.414214 0.000001
vt 0.761000 4.516500
v -397.023560 72.075806 -391.012146 0.584314 0.584314 0.584314
vn 5.146673 -2.433012 1.700493
vt 0.761000 0.462700
v -397.023804 59.038010 451.618225 0.584314 0.584314 0.584314
vn 1.725906 -4.153226 2.400984
vt 0.755200 0.457000
v -398.023804 58.038010 451.618225 0.584314 0.584314 0.584314
vn -2.433012 -5.146673 1.700491
vt 0.457000 -0.303300
v -423.208130 58.038010 451.618225 0.584314 0.584314 0.584314
vn -1.732459 -2.446120 5.101476
vt 0.462700 -0.309000
v -423.208130 59.038010 452.637024 0.584314 0.584314 0.584314
vn 1.732459 2.446120 5.101476
vt 0.755200 -0.309000
v -398.023804 72.075806 452.637024 0.584314 0.584314 0.584314
vn -2.446120 1.732459 4.101476
vt 0.537300 -0.309000
v -423.208130 72.075806 452.637024 0.584314 0.584314 0.584314
vn -2.433012 -5.146673 1.700491
vt 0.611200 0.457000
v -423.208130 58.038010 451.618225 0.584314 0.584314 0.584314
vn -2.446120 1.732459 4.101476
vt 0.611200 -0.309000
v -423.208130 72.075806 452.637024 0.584314 0.584314 0.584314
vn 4.153226 1.725906 2.400984
vt 0.761000 0.537300
v -397.023804 72.075806 451.618225 0.584314 0.584314 0.584314
# 74 vertices, 0 vertices normals


usemtl material_0
f 4/4/4 13/13/13 14/14/14
f 4/4/4 14/14/14 1/1/1
f 6/6/6 8/8/8 15/15/15
f 6/6/6 15/15/15 16/16/16
f 5/5/5 17/17/17 18/18/18
f 5/5/5 18/18/18 2/2/2
f 7/7/7 20/20/20 19/19/19
f 7/7/7 19/19/19 3/3/3
f 41/41/41 3/3/3 19/19/19
f 41/41/41 19/19/19 42/42/42
f 14/14/14 43/43/43 44/44/44
f 14/14/14 44/44/44 1/1/1
f 45/45/45 2/2/2 18/18/18
f 45/45/45 18/18/18 46/46/46
f 16/16/16 47/47/47 48/48/48
f 16/16/16 48/48/48 6/6/6
f 9/9/9 10/10/10 11/11/11
f 9/9/9 11/11/11 12/12/12
f 49/49/49 10/10/10 50/50/50
f 51/51/51 52/52/52 17/17/17
f 47/47/47 16/16/16 53/53/53
f 54/54/54 46/46/46 18/18/18
f 50/50/50 10/10/10 9/9/9
f 50/50/50 9/9/9 55/55/55
f 15/15/15 56/56/56 53/53/53
f 15/15/15 53/53/53 16/16/16
f 17/17/17 52/52/52 54/54/54
f 17/17/17 54/54/54 18/18/18
f 10/10/10 49/49/49 57/57/57
f 10/10/10 57/57/57 11/11/11
f 24/24/24 33/33/33 34/34/34
f 24/24/24 34/34/34 21/21/21
f 26/26/26 28/28/28 35/35/35
f 26/26/26 35/35/35 36/36/36
f 25/25/25 37/37/37 38/38/38
f 25/25/25 38/38/38 22/22/22
f 27/27/27 40/40/40 39/39/39
f 27/27/27 39/39/39 23/23/23
f 58/58/58 23/23/23 39/39/39
f 58/58/58 39/39/39 59/59/59
f 34/34/34 60/60/60 61/61/61
f 34/34/34 61/61/61 21/21/21
f 62/62/62 22/22/22 38/38/38
f 62/62/62 38/38/38 63/63/63
f 36/36/36 64/64/64 65/65/65
f 36/36/36 65/65/65 26/26/26
f 29/29/29 30/30/30 31/31/31
f 29/29/29 31/31/31 32/32/32
f 66/66/66 30/30/30 67/67/67
f 68/68/68 69/69/69 37/37/37
f 64/64/64 36/36/36 70/70/70
f 71/71/71 63/63/63 38/38/38
f 67/67/67 30/30/30 29/29/29
f 67/67/67 29/29/29 72/72/72
f 35/35/35 73/73/73 70/70/70
f 35/35/35 70/70/70 36/36/36
f 37/37/37 69/69/69 71/71/71
f 37/37/37 71/71/71 38/38/38
f 30/30/30 66/66/66 74/74/74
f 30/30/30 74/74/74 31/31/31
# 60 faces, 0 coords texture

# End of File
