####
#
# OBJ File Generated by Meshlab
#
####
# Object grass.obj
#
# Vertices: 4
# Faces: 2
#
####
mtllib ./grass.obj.mtl

vn 0.000000 1.570796 0.000000
vt 0.000100 0.000100
v -1.000000 0.000000 1.000000
vn 0.000000 1.570796 0.000000
vt 0.563600 0.000100
v 1.000000 0.000000 1.000000
vn 0.000000 1.570796 0.000000
vt 0.000100 0.999900
v -1.000000 0.000000 -1.000000
vn 0.000000 1.570796 0.000000
vt 0.563600 0.999900
v 1.000000 0.000000 -1.000000
# 4 vertices, 0 vertices normals


usemtl material_0
f 1/1/1 2/2/2 4/4/4
f 1/1/1 4/4/4 3/3/3
# 2 faces, 0 coords texture

# End of File
