####
#
# OBJ File Generated by Meshlab
#
####
# Object wall.obj
#
# Vertices: 16
# Faces: 10
#
####
mtllib ./wall.obj.mtl

vn -2.707107 0.000000 -0.707107
vt -2.189700 -0.197400
v -9.074768 -151.354584 -443.318604 0.584314 0.584314 0.584314
vn 2.414214 0.000000 -1.414214
vt 3.189700 -0.197400
v 8.641724 -151.354584 -443.318604 0.584314 0.584314 0.584314
vn 1.000000 0.000000 0.000000
vt -2.189700 1.190900
v 8.641724 61.818619 382.646393 0.584314 0.584314 0.584314
vn -2.414214 0.000000 -1.414214
vt -2.189700 1.190900
v -9.074768 61.818619 -443.318604 0.584314 0.584314 0.584314
vn 1.414214 0.000000 -2.414214
vt 0.448800 1.190900
v 7.641724 61.818619 -444.318604 0.584314 0.584314 0.584314
vn -1.000000 0.000000 0.000000
vt 3.189700 -0.197400
v -9.074768 -151.354584 382.646393 0.584314 0.584314 0.584314
vn 2.000000 0.000000 0.000000
vt -2.189700 -0.197400
v 8.641724 -151.354584 382.646393 0.584314 0.584314 0.584314
vn -1.414214 0.000000 -2.414214
vt 0.551200 -0.197400
v -8.074768 -151.354584 -444.318604 0.584314 0.584314 0.584314
vn 0.707107 0.000000 -2.707107
vt 0.448800 -0.197400
v 7.641724 -151.354584 -444.318604 0.584314 0.584314 0.584314
vn -2.000000 0.000000 0.000000
vt 3.189700 1.190900
v -9.074768 61.818619 382.646393 0.584314 0.584314 0.584314
vn -0.707107 0.000000 -2.707107
vt 0.551200 1.190900
v -8.074768 61.818619 -444.318604 0.584314 0.584314 0.584314
vn 2.707107 0.000000 -0.707107
vt 3.189700 1.190900
v 8.641724 61.818619 -443.318604 0.584314 0.584314 0.584314
vn 0.707107 0.000000 -2.707107
vt 3.196200 -0.197400
v 7.641724 -151.354584 -444.318604 0.584314 0.584314 0.584314
vn 1.414214 0.000000 -2.414214
vt 3.196200 1.190900
v 7.641724 61.818619 -444.318604 0.584314 0.584314 0.584314
vn -2.707107 0.000000 -0.707107
vt 0.557700 -0.197400
v -9.074768 -151.354584 -443.318604 0.584314 0.584314 0.584314
vn -2.414214 0.000000 -1.414214
vt 0.557700 1.190900
v -9.074768 61.818619 -443.318604 0.584314 0.584314 0.584314
# 16 vertices, 0 vertices normals


usemtl material_0
f 12/12/12 3/3/3 7/7/7
f 12/12/12 7/7/7 2/2/2
f 11/11/11 5/5/5 9/9/9
f 11/11/11 9/9/9 8/8/8
f 10/10/10 4/4/4 1/1/1
f 10/10/10 1/1/1 6/6/6
f 2/2/2 13/13/13 14/14/14
f 2/2/2 14/14/14 12/12/12
f 8/8/8 15/15/15 16/16/16
f 8/8/8 16/16/16 11/11/11
# 10 faces, 0 coords texture

# End of File
