####
#
# OBJ File Generated by Meshlab
#
####
# Object cement.obj
#
# Vertices: 56
# Faces: 44
#
####
mtllib ./cement.obj.mtl

vn -1.707107 -2.414214 5.121320
vt 0.244800 0.462700
v -12.592163 98.177353 422.324585 0.584314 0.584314 0.584314
vn 1.707107 -4.121320 2.414214
vt 0.388800 4.516500
v 12.592163 97.177353 421.324585 0.584314 0.584314 0.584314
vn -2.414214 1.707107 4.121320
vt 0.244800 0.537300
v -12.592163 111.215149 422.324585 0.584314 0.584314 0.584314
vn 4.121320 1.707107 2.414214
vt 0.537300 4.516500
v 13.592163 111.215149 421.324585 0.584314 0.584314 0.584314
vn -4.121320 -1.707107 2.414214
vt 0.537300 4.516500
v -13.592163 98.177353 421.324585 0.584314 0.584314 0.584314
vn -2.414214 -5.121320 1.707107
vt 0.244800 4.516500
v -12.592163 97.177353 421.324585 0.584314 0.584314 0.584314
vn 5.121320 -2.414214 1.707107
vt 0.462700 4.516500
v 13.592163 98.177353 421.324585 0.584314 0.584314 0.584314
vn 2.414214 -1.707107 4.121320
vt 0.388800 0.462700
v 12.592163 98.177353 422.324585 0.584314 0.584314 0.584314
vn -1.707107 5.121321 2.414214
vt 0.755200 4.516500
v -12.592163 112.215149 421.324585 0.584314 0.584314 0.584314
vn -5.121320 2.414214 1.707107
vt 0.462700 4.516500
v -13.592163 111.215149 421.324585 0.584314 0.584314 0.584314
vn 2.414214 4.121321 1.707107
vt 0.611200 4.516500
v 12.592163 112.215149 421.324585 0.584314 0.584314 0.584314
vn 1.707107 2.414214 5.121320
vt 0.388800 0.537300
v 12.592163 111.215149 422.324585 0.584314 0.584314 0.584314
vn 1.732592 -2.446287 -5.101371
vt 0.611200 0.462700
v 12.592163 98.177353 -422.324615 0.584314 0.584314 0.584314
vn -2.446287 -1.732592 -4.101371
vt 0.755200 0.462700
v -12.592163 98.177353 -422.324615 0.584314 0.584314 0.584314
vn -1.732592 2.446287 -5.101371
vt 0.755200 0.537300
v -12.592163 111.215149 -422.324615 0.584314 0.584314 0.584314
vn 2.446287 1.732592 -4.101371
vt 0.611200 0.537300
v 12.592163 111.215149 -422.324615 0.584314 0.584314 0.584314
vn -1.726005 -4.153394 -2.400914
vt 0.244800 -0.303300
v -12.592163 97.177353 -421.305725 0.584314 0.584314 0.584314
vn 2.433112 -5.146806 -1.700457
vt 0.388800 -0.303300
v 12.592163 97.177353 -421.305725 0.584314 0.584314 0.584314
vn 1.726005 5.153394 -2.400914
vt 0.611200 -0.303300
v 12.592163 112.215149 -421.305725 0.584314 0.584314 0.584314
vn -2.433112 4.146806 -1.700457
vt 0.755200 -0.303300
v -12.592163 112.215149 -421.305725 0.584314 0.584314 0.584314
vn 4.153394 -1.726005 -2.400914
vt 0.462700 -0.303300
v 13.592163 98.177353 -421.305725 0.584314 0.584314 0.584314
vn 5.146806 2.433112 -1.700457
vt 0.537300 -0.303300
v 13.592163 111.215149 -421.305725 0.584314 0.584314 0.584314
vn -5.146806 -2.433112 -1.700457
vt 0.537300 -0.303300
v -13.592163 98.177353 -421.305725 0.584314 0.584314 0.584314
vn -4.153394 1.726005 -2.400914
vt 0.462700 -0.303300
v -13.592163 111.215149 -421.305725 0.584314 0.584314 0.584314
vn -1.707107 -2.414214 5.121320
vt 0.537300 1.309000
v -12.592163 98.177353 422.324585 0.584314 0.584314 0.584314
vn -4.121320 -1.707107 2.414214
vt 0.537300 1.303300
v -13.592163 98.177353 421.324585 0.584314 0.584314 0.584314
vn -2.414214 -5.121320 1.707107
vt 0.543000 1.303300
v -12.592163 97.177353 421.324585 0.584314 0.584314 0.584314
vn 1.707107 -4.121320 2.414214
vt 0.388800 1.303300
v 12.592163 97.177353 421.324585 0.584314 0.584314 0.584314
vn 5.121320 -2.414214 1.707107
vt 0.394600 1.303300
v 13.592163 98.177353 421.324585 0.584314 0.584314 0.584314
vn 2.414214 -1.707107 4.121320
vt 0.388800 1.309000
v 12.592163 98.177353 422.324585 0.584314 0.584314 0.584314
vn -2.414214 1.707107 4.121320
vt 0.462700 1.309000
v -12.592163 111.215149 422.324585 0.584314 0.584314 0.584314
vn -1.707107 5.121321 2.414214
vt 0.457000 1.303300
v -12.592163 112.215149 421.324585 0.584314 0.584314 0.584314
vn -5.121320 2.414214 1.707107
vt 0.462700 1.303300
v -13.592163 111.215149 421.324585 0.584314 0.584314 0.584314
vn 4.121320 1.707107 2.414214
vt 0.394600 0.537300
v 13.592163 111.215149 421.324585 0.584314 0.584314 0.584314
vn 2.414214 4.121321 1.707107
vt 0.388800 0.543000
v 12.592163 112.215149 421.324585 0.584314 0.584314 0.584314
vn -2.414214 -5.121320 1.707107
vt 0.543000 4.516500
v -12.592163 97.177353 421.324585 0.584314 0.584314 0.584314
vn -1.726005 -4.153394 -2.400914
vt 0.543000 -0.303300
v -12.592163 97.177353 -421.305725 0.584314 0.584314 0.584314
vn 4.153394 -1.726005 -2.400914
vt 0.394600 -0.303300
v 13.592163 98.177353 -421.305725 0.584314 0.584314 0.584314
vn 5.121320 -2.414214 1.707107
vt 0.394600 4.516500
v 13.592163 98.177353 421.324585 0.584314 0.584314 0.584314
vn -1.707107 -2.414214 5.121320
vt 0.244800 1.309000
v -12.592163 98.177353 422.324585 0.584314 0.584314 0.584314
vn -2.414214 -5.121320 1.707107
vt 0.244800 1.303300
v -12.592163 97.177353 421.324585 0.584314 0.584314 0.584314
vn -1.707107 5.121321 2.414214
vt 0.244800 0.543000
v -12.592163 112.215149 421.324585 0.584314 0.584314 0.584314
vn 2.414214 4.121321 1.707107
vt 0.543000 4.516500
v 12.592163 112.215149 421.324585 0.584314 0.584314 0.584314
vn 1.726005 5.153394 -2.400914
vt 0.543000 -0.303300
v 12.592163 112.215149 -421.305725 0.584314 0.584314 0.584314
vn -4.153394 1.726005 -2.400914
vt 0.761000 -0.303300
v -13.592163 111.215149 -421.305725 0.584314 0.584314 0.584314
vn -5.121320 2.414214 1.707107
vt 0.761000 4.516500
v -13.592163 111.215149 421.324585 0.584314 0.584314 0.584314
vn 5.121320 -2.414214 1.707107
vt 0.394600 0.462700
v 13.592163 98.177353 421.324585 0.584314 0.584314 0.584314
vn -5.146806 -2.433112 -1.700457
vt 0.761000 0.462700
v -13.592163 98.177353 -421.305725 0.584314 0.584314 0.584314
vn -1.726005 -4.153394 -2.400914
vt 0.755200 0.457000
v -12.592163 97.177353 -421.305725 0.584314 0.584314 0.584314
vn 2.433112 -5.146806 -1.700457
vt 0.457000 -0.303300
v 12.592163 97.177353 -421.305725 0.584314 0.584314 0.584314
vn 1.732592 -2.446287 -5.101371
vt 0.462700 -0.309000
v 12.592163 98.177353 -422.324615 0.584314 0.584314 0.584314
vn -1.732592 2.446287 -5.101371
vt 0.755200 -0.309000
v -12.592163 111.215149 -422.324615 0.584314 0.584314 0.584314
vn 2.446287 1.732592 -4.101371
vt 0.537300 -0.309000
v 12.592163 111.215149 -422.324615 0.584314 0.584314 0.584314
vn 2.433112 -5.146806 -1.700457
vt 0.611200 0.457000
v 12.592163 97.177353 -421.305725 0.584314 0.584314 0.584314
vn 2.446287 1.732592 -4.101371
vt 0.611200 -0.309000
v 12.592163 111.215149 -422.324615 0.584314 0.584314 0.584314
vn -4.153394 1.726005 -2.400914
vt 0.761000 0.537300
v -13.592163 111.215149 -421.305725 0.584314 0.584314 0.584314
# 56 vertices, 0 vertices normals


usemtl material_0
f 6/6/6 17/17/17 18/18/18
f 6/6/6 18/18/18 2/2/2
f 9/9/9 11/11/11 19/19/19
f 9/9/9 19/19/19 20/20/20
f 7/7/7 21/21/21 22/22/22
f 7/7/7 22/22/22 4/4/4
f 10/10/10 24/24/24 23/23/23
f 10/10/10 23/23/23 5/5/5
f 12/12/12 3/3/3 1/1/1
f 12/12/12 1/1/1 8/8/8
f 25/25/25 26/26/26 27/27/27
f 28/28/28 29/29/29 30/30/30
f 31/31/31 32/32/32 33/33/33
f 34/34/34 35/35/35 12/12/12
f 36/36/36 5/5/5 23/23/23
f 36/36/36 23/23/23 37/37/37
f 18/18/18 38/38/38 39/39/39
f 18/18/18 39/39/39 2/2/2
f 28/28/28 30/30/30 40/40/40
f 28/28/28 40/40/40 41/41/41
f 42/42/42 3/3/3 12/12/12
f 42/42/42 12/12/12 35/35/35
f 43/43/43 4/4/4 22/22/22
f 43/43/43 22/22/22 44/44/44
f 20/20/20 45/45/45 46/46/46
f 20/20/20 46/46/46 9/9/9
f 34/34/34 12/12/12 8/8/8
f 34/34/34 8/8/8 47/47/47
f 26/26/26 25/25/25 31/31/31
f 26/26/26 31/31/31 33/33/33
f 13/13/13 14/14/14 15/15/15
f 13/13/13 15/15/15 16/16/16
f 48/48/48 14/14/14 49/49/49
f 50/50/50 51/51/51 21/21/21
f 45/45/45 20/20/20 52/52/52
f 53/53/53 44/44/44 22/22/22
f 49/49/49 14/14/14 13/13/13
f 49/49/49 13/13/13 54/54/54
f 19/19/19 55/55/55 52/52/52
f 19/19/19 52/52/52 20/20/20
f 21/21/21 51/51/51 53/53/53
f 21/21/21 53/53/53 22/22/22
f 14/14/14 48/48/48 56/56/56
f 14/14/14 56/56/56 15/15/15
# 44 faces, 0 coords texture

# End of File
