####
#
# OBJ File Generated by Meshlab
#
####
# Object wall.obj
#
# Vertices: 24
# Faces: 16
#
####
mtllib ./wall.obj.mtl

vn -0.707107 0.000000 2.707107
vt 0.448800 -0.197400
v -8.045654 -112.215149 413.848389 0.584314 0.584314 0.584314
vn 1.414214 0.000000 2.414214
vt 0.551200 -0.197400
v 7.670898 -112.215149 413.848389 0.584314 0.584314 0.584314
vn -2.707107 0.000000 -0.707107
vt -2.189700 -0.197400
v -9.045654 -112.215149 -413.116608 0.584314 0.584314 0.584314
vn 2.414214 0.000000 -1.414214
vt 3.189700 -0.197400
v 8.670898 -112.215149 -413.116608 0.584314 0.584314 0.584314
vn -1.414214 0.000000 2.414214
vt 0.448800 1.190900
v -8.045654 100.958054 413.848389 0.584314 0.584314 0.584314
vn 2.414214 0.000000 1.414214
vt -2.189700 1.190900
v 8.670898 100.958054 412.848389 0.584314 0.584314 0.584314
vn -2.414214 0.000000 -1.414214
vt -2.189700 1.190900
v -9.045654 100.958054 -413.116608 0.584314 0.584314 0.584314
vn 1.414214 0.000000 -2.414214
vt 0.448800 1.190900
v 7.670898 100.958054 -414.116608 0.584314 0.584314 0.584314
vn -2.414214 0.000000 1.414214
vt 3.189700 -0.197400
v -9.045654 -112.215149 412.848389 0.584314 0.584314 0.584314
vn 2.707107 0.000000 0.707107
vt -2.189700 -0.197400
v 8.670898 -112.215149 412.848389 0.584314 0.584314 0.584314
vn -1.414214 0.000000 -2.414214
vt 0.551200 -0.197400
v -8.045654 -112.215149 -414.116608 0.584314 0.584314 0.584314
vn 0.707107 0.000000 -2.707107
vt 0.448800 -0.197400
v 7.670898 -112.215149 -414.116608 0.584314 0.584314 0.584314
vn -2.707107 0.000000 0.707107
vt 3.189700 1.190900
v -9.045654 100.958054 412.848389 0.584314 0.584314 0.584314
vn 0.707107 0.000000 2.707107
vt 0.551200 1.190900
v 7.670898 100.958054 413.848389 0.584314 0.584314 0.584314
vn -0.707107 0.000000 -2.707107
vt 0.551200 1.190900
v -8.045654 100.958054 -414.116608 0.584314 0.584314 0.584314
vn 2.707107 0.000000 -0.707107
vt 3.189700 1.190900
v 8.670898 100.958054 -413.116608 0.584314 0.584314 0.584314
vn 2.707107 0.000000 0.707107
vt 0.557700 -0.197400
v 8.670898 -112.215149 412.848389 0.584314 0.584314 0.584314
vn 2.414214 0.000000 1.414214
vt 0.557700 1.190900
v 8.670898 100.958054 412.848389 0.584314 0.584314 0.584314
vn -1.414214 0.000000 2.414214
vt 3.196200 1.190900
v -8.045654 100.958054 413.848389 0.584314 0.584314 0.584314
vn -0.707107 0.000000 2.707107
vt 3.196200 -0.197400
v -8.045654 -112.215149 413.848389 0.584314 0.584314 0.584314
vn 0.707107 0.000000 -2.707107
vt 3.196200 -0.197400
v 7.670898 -112.215149 -414.116608 0.584314 0.584314 0.584314
vn 1.414214 0.000000 -2.414214
vt 3.196200 1.190900
v 7.670898 100.958054 -414.116608 0.584314 0.584314 0.584314
vn -2.707107 0.000000 -0.707107
vt 0.557700 -0.197400
v -9.045654 -112.215149 -413.116608 0.584314 0.584314 0.584314
vn -2.414214 0.000000 -1.414214
vt 0.557700 1.190900
v -9.045654 100.958054 -413.116608 0.584314 0.584314 0.584314
# 24 vertices, 0 vertices normals


usemtl material_0
f 14/14/14 5/5/5 1/1/1
f 14/14/14 1/1/1 2/2/2
f 16/16/16 6/6/6 10/10/10
f 16/16/16 10/10/10 4/4/4
f 15/15/15 8/8/8 12/12/12
f 15/15/15 12/12/12 11/11/11
f 13/13/13 7/7/7 3/3/3
f 13/13/13 3/3/3 9/9/9
f 2/2/2 17/17/17 18/18/18
f 2/2/2 18/18/18 14/14/14
f 19/19/19 13/13/13 9/9/9
f 19/19/19 9/9/9 20/20/20
f 4/4/4 21/21/21 22/22/22
f 4/4/4 22/22/22 16/16/16
f 11/11/11 23/23/23 24/24/24
f 11/11/11 24/24/24 15/15/15
# 16 faces, 0 coords texture

# End of File
